<svg width="677" height="574" viewBox="0 0 677 574" fill="none" xmlns="http://www.w3.org/2000/svg">
<path d="M349.017 557.333C511.629 557.333 643.451 549.611 643.451 540.084C643.451 530.558 511.629 522.836 349.017 522.836C186.405 522.836 54.582 530.558 54.582 540.084C54.582 549.611 186.405 557.333 349.017 557.333Z" fill="#1E1E1E"/>
<path d="M249.724 94.8331C249.73 91.995 249.502 89.1613 249.041 86.3611C247.006 73.9845 240.688 62.7238 231.197 54.5584C221.707 46.3931 209.652 41.8457 197.152 41.7156H196.696C188.309 41.7207 180.044 43.7268 172.583 47.5684C165.121 51.41 158.677 56.9769 153.781 63.8098C152.976 64.9221 152.263 66.0649 151.534 67.2077C151.474 67.2832 151.424 67.3649 151.382 67.4515C146.397 75.7243 143.771 85.2114 143.789 94.8788V94.9855C143.82 106.221 147.4 117.158 154.013 126.225C160.626 135.292 169.933 142.023 180.597 145.451C191.261 148.879 202.733 148.828 213.366 145.304C223.999 141.781 233.245 134.967 239.778 125.841C240.567 124.729 241.296 123.601 242.01 122.443C242.069 122.368 242.12 122.286 242.162 122.199C247.141 113.948 249.757 104.479 249.724 94.8331ZM146.052 93.6293C146.227 84.9293 148.65 76.4239 153.083 68.9448H169.65C167.119 76.9298 165.793 85.2503 165.717 93.6293H146.052ZM171.974 68.9448H195.603V93.6293H167.995C168.045 85.2446 169.387 76.918 171.974 68.9448ZM197.88 66.6592V43.925C201.165 44.2237 204.31 45.3968 206.992 47.3229C212.626 51.1932 217.348 57.9891 220.659 66.6592H197.88ZM221.479 68.9448C223.358 74.6528 224.58 80.5575 225.124 86.544C225.351 88.921 225.458 91.2828 225.488 93.6293H197.88V68.9448H221.479ZM192.262 44.565C193.352 44.2542 194.472 44.0601 195.603 43.986V66.7049H172.824C177.076 55.2159 183.97 46.8658 192.262 44.5193V44.565ZM195.603 95.9607V120.645H172.019C170.14 114.923 168.927 109.002 168.405 103C168.193 100.623 168.071 98.2615 168.041 95.915L195.603 95.9607ZM195.603 122.931V145.665C192.319 145.364 189.174 144.191 186.491 142.267C180.873 138.397 176.15 131.601 172.824 122.931H195.603ZM201.221 145.071C200.132 145.383 199.012 145.577 197.88 145.65V122.885H220.659C216.407 134.328 209.513 142.694 201.221 145.025V145.071ZM197.88 120.691V95.9302H225.488C225.445 104.316 224.103 112.643 221.509 120.615L197.88 120.691ZM227.766 95.9302H247.507C247.323 104.629 244.901 113.132 240.476 120.615H223.833C226.365 112.63 227.69 104.309 227.766 95.9302ZM247.507 93.6446H227.766C227.766 91.2371 227.614 88.7991 227.386 86.3459C226.868 80.4399 225.702 74.6093 223.909 68.96H240.446C243.642 74.4045 245.799 80.3984 246.809 86.6354C247.17 88.9506 247.383 91.2867 247.446 93.6293L247.507 93.6446ZM226.445 53.5245C231.408 57.112 235.688 61.5662 239.079 66.6744H223.073C219.672 57.2425 214.554 49.7762 208.283 45.4487L207.797 45.1288C214.493 46.6334 220.816 49.4843 226.384 53.5093L226.445 53.5245ZM185.641 45.1592C179.248 49.38 173.993 57.0596 170.455 66.6744H154.51L155.619 65.044C162.83 54.9426 173.496 47.8588 185.58 45.144L185.641 45.1592ZM146.158 95.9302H165.824C165.824 98.3377 165.975 100.776 166.203 103.229C166.729 109.134 167.895 114.964 169.681 120.615H153.052C149.85 115.173 147.692 109.178 146.69 102.939C146.312 100.621 146.098 98.2788 146.052 95.9302H146.158ZM154.571 122.9H170.455C173.857 132.332 178.974 139.799 185.246 144.126L185.747 144.446C172.987 141.538 161.827 133.826 154.571 122.9ZM207.888 144.4C214.266 140.195 219.52 132.5 223.073 122.885H238.988C238.624 123.434 238.259 123.982 237.88 124.516C230.662 134.622 219.983 141.702 207.888 144.4Z" fill="#23479A"/>
<path opacity="0.8" d="M249.724 94.8331C249.73 91.995 249.502 89.1613 249.041 86.3611C247.006 73.9845 240.688 62.7238 231.197 54.5584C221.707 46.3931 209.652 41.8457 197.152 41.7156H196.696C188.309 41.7207 180.044 43.7268 172.583 47.5684C165.121 51.41 158.677 56.9769 153.781 63.8098C152.976 64.9221 152.263 66.0649 151.534 67.2077C151.474 67.2832 151.424 67.3649 151.382 67.4515C146.397 75.7243 143.771 85.2114 143.789 94.8788V94.9855C143.82 106.221 147.4 117.158 154.013 126.225C160.626 135.292 169.933 142.023 180.597 145.451C191.261 148.879 202.733 148.828 213.366 145.304C223.999 141.781 233.245 134.967 239.778 125.841C240.567 124.729 241.296 123.601 242.01 122.443C242.069 122.368 242.12 122.286 242.162 122.199C247.141 113.948 249.757 104.479 249.724 94.8331ZM146.052 93.6293C146.227 84.9293 148.65 76.4239 153.083 68.9448H169.65C167.119 76.9298 165.793 85.2503 165.717 93.6293H146.052ZM171.974 68.9448H195.603V93.6293H167.995C168.045 85.2446 169.387 76.918 171.974 68.9448ZM197.88 66.6592V43.925C201.165 44.2237 204.31 45.3968 206.992 47.3229C212.626 51.1932 217.348 57.9891 220.659 66.6592H197.88ZM221.479 68.9448C223.358 74.6528 224.58 80.5575 225.124 86.544C225.351 88.921 225.458 91.2828 225.488 93.6293H197.88V68.9448H221.479ZM192.262 44.565C193.352 44.2542 194.472 44.0601 195.603 43.986V66.7049H172.824C177.076 55.2159 183.97 46.8658 192.262 44.5193V44.565ZM195.603 95.9607V120.645H172.019C170.14 114.923 168.927 109.002 168.405 103C168.193 100.623 168.071 98.2615 168.041 95.915L195.603 95.9607ZM195.603 122.931V145.665C192.319 145.364 189.174 144.191 186.491 142.267C180.873 138.397 176.15 131.601 172.824 122.931H195.603ZM201.221 145.071C200.132 145.383 199.012 145.577 197.88 145.65V122.885H220.659C216.407 134.328 209.513 142.694 201.221 145.025V145.071ZM197.88 120.691V95.9302H225.488C225.445 104.316 224.103 112.643 221.509 120.615L197.88 120.691ZM227.766 95.9302H247.507C247.323 104.629 244.901 113.132 240.476 120.615H223.833C226.365 112.63 227.69 104.309 227.766 95.9302ZM247.507 93.6446H227.766C227.766 91.2371 227.614 88.7991 227.386 86.3459C226.868 80.4399 225.702 74.6093 223.909 68.96H240.446C243.642 74.4045 245.799 80.3984 246.809 86.6354C247.17 88.9506 247.383 91.2867 247.446 93.6293L247.507 93.6446ZM226.445 53.5245C231.408 57.112 235.688 61.5662 239.079 66.6744H223.073C219.672 57.2425 214.554 49.7762 208.283 45.4487L207.797 45.1288C214.493 46.6334 220.816 49.4843 226.384 53.5093L226.445 53.5245ZM185.641 45.1592C179.248 49.38 173.993 57.0596 170.455 66.6744H154.51L155.619 65.044C162.83 54.9426 173.496 47.8588 185.58 45.144L185.641 45.1592ZM146.158 95.9302H165.824C165.824 98.3377 165.975 100.776 166.203 103.229C166.729 109.134 167.895 114.964 169.681 120.615H153.052C149.85 115.173 147.692 109.178 146.69 102.939C146.312 100.621 146.098 98.2788 146.052 95.9302H146.158ZM154.571 122.9H170.455C173.857 132.332 178.974 139.799 185.246 144.126L185.747 144.446C172.987 141.538 161.827 133.826 154.571 122.9ZM207.888 144.4C214.266 140.195 219.52 132.5 223.073 122.885H238.988C238.624 123.434 238.259 123.982 237.88 124.516C230.662 134.622 219.983 141.702 207.888 144.4Z" fill="#FAFAFA"/>
<path d="M595.562 120.158H118.125V236.236H595.562V120.158Z" fill="#23479A"/>
<path opacity="0.6" d="M595.562 120.158H118.125V236.236H595.562V120.158Z" fill="#FAFAFA"/>
<path d="M584.796 130.961H107.359V247.039H584.796V130.961Z" fill="#23479A"/>
<path opacity="0.3" d="M584.796 130.961H107.359V247.039H584.796V130.961Z" fill="black"/>
<path d="M574.031 141.764H96.5938V257.843H574.031V141.764Z" fill="#23479A"/>
<path opacity="0.1" d="M574.031 141.764H96.5938V257.843H574.031V141.764Z" fill="#FAFAFA"/>
<path d="M551.25 234.987V164.62L119.37 164.62V234.987L551.25 234.987Z" fill="#23479A"/>
<path opacity="0.9" d="M551.25 234.987V164.62L119.37 164.62V234.987L551.25 234.987Z" fill="#FAFAFA"/>
<path d="M478.602 164.62V234.987H481.137V164.62H478.602Z" fill="#23479A"/>
<path opacity="0.6" d="M478.602 164.62V234.987H481.137V164.62H478.602Z" fill="#FAFAFA"/>
<path d="M130.137 174.327V225.28H132.673V174.327H130.137Z" fill="#23479A"/>
<path opacity="0.6" d="M130.137 174.327V225.28H132.673V174.327H130.137Z" fill="#FAFAFA"/>
<path d="M513.773 208.687C511.93 208.686 510.116 208.229 508.491 207.357C506.866 206.485 505.481 205.224 504.458 203.687C503.434 202.149 502.804 200.382 502.624 198.542C502.444 196.702 502.718 194.846 503.424 193.138C504.129 191.43 505.243 189.922 506.667 188.749C508.092 187.576 509.782 186.774 511.59 186.413C513.397 186.052 515.265 186.144 517.028 186.68C518.792 187.216 520.396 188.181 521.7 189.488C523.268 191.06 524.336 193.065 524.769 195.247C525.202 197.429 524.98 199.69 524.131 201.746C523.282 203.801 521.845 205.558 520.001 206.793C518.158 208.029 515.99 208.688 513.773 208.687ZM513.773 189.259C511.882 189.26 510.05 189.918 508.589 191.122C507.128 192.326 506.129 194.002 505.761 195.862C505.393 197.723 505.68 199.654 506.573 201.327C507.465 202.999 508.908 204.309 510.655 205.033C512.403 205.758 514.346 205.852 516.155 205.299C517.963 204.747 519.525 203.582 520.573 202.003C521.622 200.424 522.092 198.53 521.904 196.642C521.717 194.755 520.882 192.991 519.543 191.651C518.793 190.875 517.897 190.257 516.906 189.833C515.915 189.41 514.85 189.188 513.773 189.183V189.259Z" fill="#23479A"/>
<path d="M528.305 213.471C528.104 213.471 527.905 213.43 527.72 213.351C527.535 213.273 527.368 213.158 527.227 213.014L519.558 205.319C519.399 205.183 519.27 205.015 519.179 204.826C519.088 204.637 519.037 204.431 519.028 204.221C519.02 204.011 519.056 203.802 519.132 203.606C519.208 203.411 519.324 203.233 519.472 203.085C519.62 202.936 519.797 202.82 519.992 202.743C520.187 202.667 520.395 202.631 520.605 202.639C520.814 202.648 521.019 202.699 521.207 202.79C521.396 202.882 521.563 203.011 521.699 203.171L529.368 210.866C529.651 211.151 529.81 211.537 529.81 211.94C529.81 212.343 529.651 212.729 529.368 213.014C529.088 213.301 528.706 213.466 528.305 213.471Z" fill="#23479A"/>
<g opacity="0.6">
<path opacity="0.6" d="M513.773 208.687C511.93 208.686 510.116 208.229 508.491 207.357C506.866 206.485 505.481 205.224 504.458 203.687C503.434 202.149 502.804 200.382 502.624 198.542C502.444 196.702 502.718 194.846 503.424 193.138C504.129 191.43 505.243 189.922 506.667 188.749C508.092 187.576 509.782 186.774 511.59 186.413C513.397 186.052 515.265 186.144 517.028 186.68C518.792 187.216 520.396 188.181 521.7 189.488C523.268 191.06 524.336 193.065 524.769 195.247C525.202 197.429 524.98 199.69 524.131 201.746C523.282 203.801 521.845 205.558 520.001 206.793C518.158 208.029 515.99 208.688 513.773 208.687ZM513.773 189.259C511.882 189.26 510.05 189.918 508.589 191.122C507.128 192.326 506.129 194.002 505.761 195.862C505.393 197.723 505.68 199.654 506.573 201.327C507.465 202.999 508.908 204.309 510.655 205.033C512.403 205.758 514.346 205.852 516.155 205.299C517.963 204.747 519.525 203.582 520.573 202.003C521.622 200.424 522.092 198.53 521.904 196.642C521.717 194.755 520.882 192.991 519.543 191.651C518.793 190.875 517.897 190.257 516.906 189.833C515.915 189.41 514.85 189.188 513.773 189.183V189.259Z" fill="#FAFAFA"/>
<path opacity="0.6" d="M528.305 213.471C528.104 213.471 527.905 213.43 527.72 213.351C527.535 213.273 527.368 213.158 527.227 213.014L519.558 205.319C519.399 205.183 519.27 205.015 519.179 204.826C519.088 204.637 519.037 204.431 519.028 204.221C519.02 204.011 519.056 203.802 519.132 203.606C519.208 203.411 519.324 203.233 519.472 203.085C519.62 202.936 519.797 202.82 519.992 202.743C520.187 202.667 520.395 202.631 520.605 202.639C520.814 202.648 521.019 202.699 521.207 202.79C521.396 202.882 521.563 203.011 521.699 203.171L529.368 210.866C529.651 211.151 529.81 211.537 529.81 211.94C529.81 212.343 529.651 212.729 529.368 213.014C529.088 213.301 528.706 213.466 528.305 213.471Z" fill="#FAFAFA"/>
</g>
<path d="M410.752 49.9895H363.008V51.178H410.752V49.9895Z" fill="#23479A"/>
<path d="M410.752 55.0331H363.008V56.2216H410.752V55.0331Z" fill="#23479A"/>
<path d="M410.752 60.0919H363.008V61.2804H410.752V60.0919Z" fill="#23479A"/>
<path d="M410.752 65.1355H363.008V66.324H410.752V65.1355Z" fill="#23479A"/>
<path d="M410.752 70.1791H363.008V71.3676H410.752V70.1791Z" fill="#23479A"/>
<path d="M394.138 75.2379H363.008V76.4264H394.138V75.2379Z" fill="#23479A"/>
<g opacity="0.5">
<path opacity="0.5" d="M410.752 49.9895H363.008V51.178H410.752V49.9895Z" fill="#FAFAFA"/>
<path opacity="0.5" d="M410.752 55.0331H363.008V56.2216H410.752V55.0331Z" fill="#FAFAFA"/>
<path opacity="0.5" d="M410.752 60.0919H363.008V61.2804H410.752V60.0919Z" fill="#FAFAFA"/>
<path opacity="0.5" d="M410.752 65.1355H363.008V66.324H410.752V65.1355Z" fill="#FAFAFA"/>
<path opacity="0.5" d="M410.752 70.1791H363.008V71.3676H410.752V70.1791Z" fill="#FAFAFA"/>
<path opacity="0.5" d="M394.138 75.2378H363.008V76.4263H394.138V75.2378Z" fill="#FAFAFA"/>
</g>
<path d="M123.38 267.869H72.5078V268.631H123.38V267.869Z" fill="#23479A"/>
<path d="M123.38 271.099H72.5078V271.861H123.38V271.099Z" fill="#23479A"/>
<path d="M123.38 274.329H72.5078V275.091H123.38V274.329Z" fill="#23479A"/>
<path d="M123.38 277.56H72.5078V278.322H123.38V277.56Z" fill="#23479A"/>
<path d="M123.38 280.79H72.5078V281.552H123.38V280.79Z" fill="#23479A"/>
<path d="M104.489 284.036H72.5078V284.798H104.489V284.036Z" fill="#23479A"/>
<g opacity="0.4">
<path opacity="0.4" d="M123.38 267.869H72.5078V268.631H123.38V267.869Z" fill="#FAFAFA"/>
<path opacity="0.4" d="M123.38 271.099H72.5078V271.861H123.38V271.099Z" fill="#FAFAFA"/>
<path opacity="0.4" d="M123.38 274.33H72.5078V275.091H123.38V274.33Z" fill="#FAFAFA"/>
<path opacity="0.4" d="M123.38 277.56H72.5078V278.322H123.38V277.56Z" fill="#FAFAFA"/>
<path opacity="0.4" d="M123.38 280.79H72.5078V281.552H123.38V280.79Z" fill="#FAFAFA"/>
<path opacity="0.4" d="M104.489 284.036H72.5078V284.798H104.489V284.036Z" fill="#FAFAFA"/>
</g>
<path d="M290.574 57.4711C288.028 57.4711 285.587 58.4857 283.788 60.2916C281.988 62.0976 280.977 64.5471 280.977 67.1011V98.871C280.977 101.425 281.988 103.875 283.788 105.68C285.587 107.486 288.028 108.501 290.574 108.501C293.119 108.501 295.56 107.486 297.36 105.68C299.16 103.875 300.171 101.425 300.171 98.871V67.1011C300.171 64.5471 299.16 62.0976 297.36 60.2916C295.56 58.4857 293.119 57.4711 290.574 57.4711Z" fill="#23479A"/>
<path opacity="0.2" d="M290.574 57.4711C288.028 57.4711 285.587 58.4857 283.788 60.2916C281.988 62.0976 280.977 64.5471 280.977 67.1011V98.871C280.977 101.425 281.988 103.875 283.788 105.68C285.587 107.486 288.028 108.501 290.574 108.501C293.119 108.501 295.56 107.486 297.36 105.68C299.16 103.875 300.171 101.425 300.171 98.871V67.1011C300.171 64.5471 299.16 62.0976 297.36 60.2916C295.56 58.4857 293.119 57.4711 290.574 57.4711Z" fill="#FAFAFA"/>
<path d="M314.626 38.531C312.089 38.5431 309.659 39.563 307.869 41.3677C306.079 43.1723 305.074 45.6149 305.074 48.161V98.871C305.074 101.425 306.085 103.874 307.885 105.68C309.685 107.486 312.126 108.501 314.672 108.501C317.217 108.501 319.658 107.486 321.458 105.68C323.258 103.874 324.269 101.425 324.269 98.871V48.161C324.269 46.8925 324.019 45.6365 323.534 44.4652C323.049 43.2938 322.338 42.2302 321.442 41.3354C320.546 40.4405 319.482 39.7321 318.313 39.2509C317.143 38.7696 315.89 38.525 314.626 38.531Z" fill="#23479A"/>
<path opacity="0.3" d="M314.626 38.531C312.089 38.5431 309.659 39.563 307.869 41.3677C306.079 43.1723 305.074 45.6149 305.074 48.161V98.871C305.074 101.425 306.085 103.874 307.885 105.68C309.685 107.486 312.126 108.501 314.672 108.501C317.217 108.501 319.658 107.486 321.458 105.68C323.258 103.874 324.269 101.425 324.269 98.871V48.161C324.269 46.8925 324.019 45.6365 323.534 44.4652C323.049 43.2938 322.338 42.2302 321.442 41.3354C320.546 40.4405 319.482 39.7321 318.313 39.2509C317.143 38.7696 315.89 38.525 314.626 38.531Z" fill="black"/>
<path d="M338.668 76.4111C336.122 76.4111 333.681 77.4257 331.881 79.2317C330.081 81.0377 329.07 83.4871 329.07 86.0412V98.871C329.07 101.425 330.081 103.875 331.881 105.681C333.681 107.486 336.122 108.501 338.668 108.501C339.929 108.503 341.179 108.255 342.345 107.772C343.511 107.289 344.571 106.58 345.464 105.686C346.357 104.791 347.065 103.729 347.548 102.56C348.031 101.39 348.28 100.137 348.28 98.871V86.0412C348.28 84.7753 348.031 83.5218 347.548 82.3524C347.065 81.183 346.357 80.1207 345.464 79.2263C344.571 78.3319 343.511 77.6229 342.345 77.1398C341.179 76.6567 339.929 76.4091 338.668 76.4111Z" fill="#23479A"/>
<path opacity="0.6" d="M338.668 76.4111C336.122 76.4111 333.681 77.4257 331.881 79.2317C330.081 81.0377 329.07 83.4871 329.07 86.0412V98.871C329.07 101.425 330.081 103.875 331.881 105.681C333.681 107.486 336.122 108.501 338.668 108.501C339.929 108.503 341.179 108.255 342.345 107.772C343.511 107.289 344.571 106.58 345.464 105.686C346.357 104.791 347.065 103.729 347.548 102.56C348.031 101.39 348.28 100.137 348.28 98.871V86.0412C348.28 84.7753 348.031 83.5218 347.548 82.3524C347.065 81.183 346.357 80.1207 345.464 79.2263C344.571 78.3319 343.511 77.6229 342.345 77.1398C341.179 76.6567 339.929 76.4091 338.668 76.4111Z" fill="#FAFAFA"/>
<path d="M541.382 294.214H580.181L513.941 225.28L541.382 294.214Z" fill="#23479A"/>
<g opacity="0.1">
<path opacity="0.1" d="M541.382 294.214H580.181L513.941 225.28L541.382 294.214Z" fill="black"/>
</g>
<g style="mix-blend-mode:multiply">
<path d="M504.086 257.827L513.941 225.28L519.53 257.827H504.086Z" fill="#23479A"/>
</g>
<path d="M513.941 225.28V321.733L520.805 314.861L541.382 294.214L513.941 225.28Z" fill="#23479A"/>
<path opacity="0.3" d="M513.941 225.28V321.733L520.805 314.861L541.382 294.214L513.941 225.28Z" fill="#FAFAFA"/>
<path d="M582.549 18.3872H497.509C493.2 18.4032 489.071 20.1272 486.021 23.1838C482.972 26.2403 481.25 30.3819 481.23 34.7064V78.7729C481.25 83.0949 482.97 87.2341 486.016 90.2903C489.062 93.3464 493.187 95.0722 497.494 95.0922H559.892L559.437 110.497L575.184 95.0922H582.519C586.829 95.0762 590.958 93.3521 594.007 90.2956C597.056 87.2391 598.778 83.0975 598.798 78.7729V34.7064C598.778 30.3871 597.06 26.2502 594.018 23.1945C590.975 20.1388 586.854 18.4112 582.549 18.3872ZM495.596 37.1597C495.596 35.9473 496.076 34.7846 496.93 33.9273C497.785 33.0701 498.944 32.5884 500.152 32.5884H519.726C520.934 32.5884 522.093 33.0701 522.947 33.9273C523.802 34.7846 524.282 35.9473 524.282 37.1597C524.282 38.372 523.802 39.5347 522.947 40.392C522.093 41.2493 520.934 41.7309 519.726 41.7309H500.137C498.931 41.7268 497.776 41.2435 496.925 40.3866C496.074 39.5298 495.596 38.3694 495.596 37.1597ZM577.72 79.8243H543.887C543.232 79.9394 542.56 79.9093 541.918 79.7362C541.276 79.563 540.679 79.2509 540.17 78.8218C539.661 78.3927 539.252 77.8571 538.971 77.2524C538.69 76.6478 538.545 75.9888 538.545 75.3217C538.545 74.6546 538.69 73.9956 538.971 73.391C539.252 72.7863 539.661 72.2506 540.17 71.8216C540.679 71.3925 541.276 71.0804 541.918 70.9072C542.56 70.734 543.232 70.7039 543.887 70.819H577.72C578.375 70.7039 579.047 70.734 579.689 70.9072C580.331 71.0804 580.928 71.3925 581.437 71.8216C581.946 72.2506 582.355 72.7863 582.636 73.391C582.916 73.9956 583.062 74.6546 583.062 75.3217C583.062 75.9888 582.916 76.6478 582.636 77.2524C582.355 77.8571 581.946 78.3927 581.437 78.8218C580.928 79.2509 580.331 79.563 579.689 79.7362C579.047 79.9093 578.375 79.9394 577.72 79.8243ZM577.72 60.7624H504.692C504.037 60.8775 503.365 60.8474 502.723 60.6742C502.081 60.501 501.485 60.1889 500.976 59.7598C500.467 59.3308 500.058 58.7951 499.777 58.1905C499.496 57.5858 499.351 56.9268 499.351 56.2597C499.351 55.5926 499.496 54.9336 499.777 54.329C500.058 53.7243 500.467 53.1887 500.976 52.7596C501.485 52.3305 502.081 52.0184 502.723 51.8453C503.365 51.6721 504.037 51.642 504.692 51.7571H577.72C578.375 51.642 579.047 51.6721 579.689 51.8453C580.331 52.0184 580.928 52.3305 581.437 52.7596C581.946 53.1887 582.355 53.7243 582.636 54.329C582.916 54.9336 583.062 55.5926 583.062 56.2597C583.062 56.9268 582.916 57.5858 582.636 58.1905C582.355 58.7951 581.946 59.3308 581.437 59.7598C580.928 60.1889 580.331 60.501 579.689 60.6742C579.047 60.8474 578.375 60.8775 577.72 60.7624ZM577.72 41.7004H534.487C533.278 41.7004 532.12 41.2188 531.265 40.3615C530.411 39.5043 529.931 38.3416 529.931 37.1292C529.931 35.9168 530.411 34.7541 531.265 33.8969C532.12 33.0396 533.278 32.558 534.487 32.558H577.72C578.928 32.558 580.087 33.0396 580.942 33.8969C581.796 34.7541 582.276 35.9168 582.276 37.1292C582.276 38.3416 581.796 39.5043 580.942 40.3615C580.087 41.2188 578.928 41.7004 577.72 41.7004Z" fill="#23479A"/>
<path d="M429.879 161.653C426.247 151.643 420.701 142.44 413.554 134.561H292.813C285.666 142.44 280.12 151.643 276.488 161.653L293.192 245.093C305.971 258.994 323.152 268.026 341.816 270.657C360.48 273.287 379.475 269.353 395.576 259.523C411.677 249.694 423.89 234.574 430.14 216.733C436.39 198.892 436.293 179.43 429.863 161.653H429.879Z" fill="#23479A"/>
<path opacity="0.1" d="M429.879 161.653C426.247 151.643 420.701 142.44 413.554 134.561H292.813C285.666 142.44 280.12 151.643 276.488 161.653L293.192 245.093C305.971 258.994 323.152 268.026 341.816 270.657C360.48 273.287 379.475 269.353 395.576 259.523C411.677 249.694 423.89 234.574 430.14 216.733C436.39 198.892 436.293 179.43 429.863 161.653H429.879Z" fill="#FAFAFA"/>
<path d="M434.689 193.393C433.827 212.633 426.21 230.946 413.186 245.093H293.219C283.092 234.051 276.179 220.431 273.233 205.718C270.288 191.005 271.423 175.764 276.515 161.653H429.89C433.574 171.809 435.205 182.598 434.689 193.393Z" fill="#23479A"/>
<path opacity="0.9" d="M434.689 193.393C433.827 212.633 426.21 230.946 413.186 245.093H293.219C283.092 234.051 276.179 220.431 273.233 205.718C270.288 191.005 271.423 175.764 276.515 161.653H429.89C433.574 171.809 435.205 182.598 434.689 193.393Z" fill="#FAFAFA"/>
<path opacity="0.3" d="M434.693 193.393C433.748 213.639 425.336 232.81 411.091 247.181C396.846 261.551 377.786 270.094 357.613 271.15C337.441 272.206 317.598 265.7 301.94 252.895C286.282 240.09 275.927 221.902 272.888 201.864C269.849 181.826 274.342 161.37 285.495 144.471C296.648 127.572 313.664 115.437 333.236 110.424C352.808 105.411 373.539 107.878 391.399 117.346C409.26 126.814 422.975 142.606 429.879 161.654C433.563 171.809 435.199 182.598 434.693 193.393Z" fill="white"/>
<path opacity="0.4" d="M399.17 122.006L281.845 229.368C281.258 228.281 280.681 227.184 280.114 226.077C276.527 218.871 274.034 211.167 272.719 203.221L374.053 110.486C383.02 112.857 391.515 116.754 399.17 122.006Z" fill="white"/>
<path opacity="0.4" d="M430.56 163.619L320.328 264.552C308.893 259.489 298.772 251.857 290.746 242.244L411.199 132.017C419.977 140.926 426.6 151.738 430.56 163.619Z" fill="white"/>
<path d="M434.66 142.409C425.354 126.218 411.471 113.161 394.768 104.889C378.065 96.6175 359.291 93.5032 340.823 95.9403C322.356 98.3774 305.023 106.256 291.019 118.58C277.015 130.904 266.969 147.119 262.152 165.174C257.335 183.228 257.963 202.311 263.957 220.007C269.952 237.703 281.042 253.217 295.826 264.587C310.61 275.957 328.423 282.671 347.011 283.879C365.599 285.088 384.126 280.738 400.249 271.378C421.844 258.842 437.597 238.219 444.048 214.037C450.5 189.856 447.124 164.094 434.66 142.409ZM288.878 226.885C281.535 214.125 278.129 199.468 279.088 184.766C280.048 170.064 285.331 155.978 294.269 144.288C303.207 132.599 315.399 123.831 329.302 119.094C343.206 114.357 358.198 113.864 372.381 117.676C386.565 121.488 399.303 129.434 408.986 140.511C418.669 151.587 424.861 165.295 426.779 179.902C428.697 194.51 426.255 209.36 419.763 222.575C413.27 235.79 403.018 246.776 390.303 254.144C381.86 259.037 372.54 262.213 362.875 263.491C353.209 264.769 343.387 264.124 333.97 261.592C324.553 259.061 315.725 254.693 307.991 248.738C300.256 242.782 293.767 235.357 288.893 226.885H288.878Z" fill="#23479A"/>
<path opacity="0.1" d="M434.66 142.409C425.354 126.218 411.471 113.161 394.768 104.889C378.065 96.6175 359.291 93.5032 340.823 95.9403C322.356 98.3774 305.023 106.256 291.019 118.58C277.015 130.904 266.969 147.119 262.152 165.174C257.335 183.228 257.963 202.311 263.957 220.007C269.952 237.703 281.042 253.217 295.826 264.587C310.61 275.957 328.423 282.671 347.011 283.879C365.599 285.088 384.126 280.738 400.249 271.378C421.844 258.842 437.597 238.219 444.048 214.037C450.5 189.856 447.124 164.094 434.66 142.409ZM288.878 226.885C281.535 214.125 278.129 199.468 279.088 184.766C280.048 170.064 285.331 155.978 294.269 144.288C303.207 132.599 315.399 123.831 329.302 119.094C343.206 114.357 358.198 113.864 372.381 117.676C386.565 121.488 399.303 129.434 408.986 140.511C418.669 151.587 424.861 165.295 426.779 179.902C428.697 194.51 426.255 209.36 419.763 222.575C413.27 235.79 403.018 246.776 390.303 254.144C381.86 259.037 372.54 262.213 362.875 263.491C353.209 264.769 343.387 264.124 333.97 261.592C324.553 259.061 315.725 254.693 307.991 248.738C300.256 242.782 293.767 235.357 288.893 226.885H288.878Z" fill="black"/>
<path d="M136.673 286.768L148.305 289.48L138.662 296.702C138.662 296.702 131.752 293.564 131.434 288.642L136.673 286.768Z" fill="#E4897B"/>
<path d="M154.529 297.251L146.147 302.858L138.66 296.702L148.303 289.495L154.529 297.251Z" fill="#E4897B"/>
<path d="M286.114 239.364C273.753 248.507 261.073 257.192 248.332 265.679C235.592 274.166 222.684 282.44 209.715 290.562C196.747 298.683 183.657 306.637 170.521 314.363C163.961 318.294 157.34 322.103 150.78 325.973C147.521 328.055 143.968 329.632 140.241 330.651C138.252 331.181 136.219 331.522 134.167 331.672C131.889 331.859 129.596 331.741 127.348 331.322C125.742 331.003 124.215 330.37 122.853 329.458C121.491 328.546 120.322 327.374 119.412 326.008C118.502 324.642 117.87 323.11 117.551 321.498C117.232 319.887 117.233 318.229 117.554 316.618C117.658 316.1 117.8 315.591 117.979 315.094C118.712 312.934 119.734 310.883 121.016 308.999C122.16 307.305 123.462 305.723 124.903 304.275C127.65 301.547 130.787 299.246 134.212 297.449C140.848 293.655 147.439 289.83 154.121 286.067C167.423 278.524 180.847 271.18 194.302 263.927C207.756 256.674 221.378 249.649 235.075 242.793C248.773 235.936 262.577 229.262 276.669 223.106C278.796 222.162 281.195 222.041 283.405 222.764C285.616 223.487 287.483 225.004 288.647 227.024C289.81 229.044 290.189 231.424 289.711 233.708C289.232 235.991 287.93 238.016 286.054 239.395L286.114 239.364Z" fill="#23479A"/>
<path opacity="0.1" d="M286.114 239.364C273.753 248.507 261.073 257.192 248.332 265.679C235.592 274.166 222.684 282.44 209.715 290.562C196.747 298.683 183.657 306.637 170.521 314.363C163.961 318.294 157.34 322.103 150.78 325.973C147.521 328.055 143.968 329.632 140.241 330.651C138.252 331.181 136.219 331.522 134.167 331.672C131.889 331.859 129.596 331.741 127.348 331.322C125.742 331.003 124.215 330.37 122.853 329.458C121.491 328.546 120.322 327.374 119.412 326.008C118.502 324.642 117.87 323.11 117.551 321.498C117.232 319.887 117.233 318.229 117.554 316.618C117.658 316.1 117.8 315.591 117.979 315.094C118.712 312.934 119.734 310.883 121.016 308.999C122.16 307.305 123.462 305.723 124.903 304.275C127.65 301.547 130.787 299.246 134.212 297.449C140.848 293.655 147.439 289.83 154.121 286.067C167.423 278.524 180.847 271.18 194.302 263.927C207.756 256.674 221.378 249.649 235.075 242.793C248.773 235.936 262.577 229.262 276.669 223.106C278.796 222.162 281.195 222.041 283.405 222.764C285.616 223.487 287.483 225.004 288.647 227.024C289.81 229.044 290.189 231.424 289.711 233.708C289.232 235.991 287.93 238.016 286.054 239.395L286.114 239.364Z" fill="black"/>
<path d="M153.528 214.588C152.768 215.822 151.903 217.316 151.083 218.718C150.263 220.119 149.458 221.582 148.699 223.06C147.18 225.971 145.662 228.927 144.143 231.928C142.624 234.93 141.394 238.023 140.149 241.071C139.542 242.594 138.904 244.118 138.342 245.642L137.492 247.973C137.325 248.415 137.294 248.598 137.188 248.918C137.082 249.238 137.036 249.543 136.945 249.847C136.352 252.859 136.052 255.921 136.049 258.99C135.973 262.266 136.049 265.603 136.231 268.97C136.413 272.338 136.596 275.721 136.899 279.103C137.203 282.486 137.507 285.93 137.826 289.282L131.964 290.486C130.931 287.088 130.127 283.705 129.322 280.277C128.517 276.848 127.91 273.404 127.317 269.9C126.725 266.395 126.33 262.875 126.072 259.234C125.756 255.42 125.853 251.583 126.361 247.79C126.452 247.257 126.528 246.754 126.664 246.267C126.801 245.779 126.938 245.093 127.059 244.743L127.803 242.153C128.289 240.431 128.851 238.724 129.428 237.033C130.597 233.635 131.873 230.298 133.3 227.007C134.728 223.715 136.246 220.5 137.856 217.331C138.691 215.807 139.572 214.177 140.468 212.607C141.364 211.038 142.26 209.56 143.384 207.899L153.528 214.588Z" fill="#E4897B"/>
<path d="M147.043 529.21C146.018 529.177 145 529.034 144.006 528.783C143.953 528.774 143.904 528.749 143.866 528.711C143.827 528.672 143.802 528.623 143.793 528.57C143.784 528.515 143.79 528.458 143.812 528.407C143.833 528.356 143.869 528.312 143.915 528.28C144.325 528.006 147.909 525.69 149.291 526.315C149.444 526.385 149.576 526.496 149.672 526.635C149.768 526.775 149.825 526.938 149.837 527.107C149.909 527.378 149.904 527.664 149.823 527.933C149.743 528.202 149.59 528.443 149.382 528.631C148.698 529.101 147.867 529.306 147.043 529.21ZM144.72 528.387C146.785 528.798 148.334 528.722 148.926 528.173C149.056 528.048 149.151 527.891 149.202 527.717C149.253 527.543 149.257 527.359 149.215 527.183C149.213 527.105 149.189 527.03 149.146 526.965C149.103 526.9 149.043 526.849 148.972 526.817C148.258 526.497 146.178 527.503 144.72 528.387Z" fill="#23479A"/>
<path d="M143.993 528.798C143.948 528.811 143.9 528.811 143.856 528.798C143.812 528.775 143.776 528.74 143.752 528.696C143.728 528.653 143.716 528.604 143.719 528.554C143.719 528.417 143.719 525.004 145.01 523.861C145.169 523.717 145.357 523.609 145.562 523.544C145.766 523.478 145.981 523.456 146.194 523.48C146.418 523.483 146.634 523.564 146.806 523.708C146.977 523.853 147.094 524.052 147.136 524.273C147.409 525.598 145.253 528.158 144.099 528.844C144.06 528.837 144.024 528.822 143.993 528.798ZM146.012 523.983C145.782 523.985 145.56 524.072 145.39 524.227C144.643 525.331 144.26 526.642 144.296 527.975C145.42 527.061 146.756 525.141 146.589 524.334C146.589 524.196 146.483 524.044 146.134 523.998L146.012 523.983Z" fill="#23479A"/>
<path d="M200.833 529.21C199.582 529.191 198.336 529.048 197.113 528.783C197.054 528.776 197 528.75 196.959 528.709C196.917 528.667 196.891 528.613 196.885 528.554C196.878 528.496 196.889 528.438 196.916 528.386C196.943 528.334 196.985 528.292 197.037 528.265C197.568 527.991 202.276 525.583 203.718 526.375C203.857 526.447 203.975 526.553 204.06 526.684C204.145 526.815 204.195 526.966 204.204 527.122C204.237 527.373 204.208 527.629 204.117 527.866C204.027 528.103 203.88 528.313 203.688 528.478C202.848 529.044 201.84 529.302 200.833 529.21ZM198.039 528.387C200.666 528.829 202.595 528.707 203.323 528.067C203.445 527.954 203.537 527.813 203.592 527.656C203.648 527.5 203.665 527.332 203.642 527.168C203.642 527.105 203.625 527.044 203.593 526.991C203.561 526.937 203.515 526.893 203.46 526.863C202.67 526.436 199.967 527.457 198.039 528.387Z" fill="#23479A"/>
<path d="M197.156 528.798C197.132 528.808 197.106 528.813 197.08 528.813C197.054 528.813 197.028 528.808 197.004 528.798C196.96 528.776 196.925 528.74 196.903 528.697C196.881 528.653 196.874 528.603 196.882 528.554C196.882 528.417 197.171 525.217 198.644 523.983C199.067 523.628 199.612 523.453 200.162 523.496C200.937 523.572 201.15 523.968 201.21 524.288C201.423 525.629 198.644 528.189 197.232 528.859L197.156 528.798ZM199.98 523.983C199.624 523.987 199.279 524.116 199.008 524.349C198.137 525.381 197.607 526.659 197.49 528.006C198.917 527.137 200.815 525.126 200.679 524.318C200.679 524.318 200.679 524.044 200.132 523.998L199.98 523.983Z" fill="#23479A"/>
<path d="M171.51 168.83C172.436 175.946 174.547 190.376 169.414 194.734C169.414 194.734 170.933 201.987 183.871 202.825C198.176 203.754 191.16 196.151 191.16 196.151C183.476 193.774 184.053 187.968 185.769 182.605L171.51 168.83Z" fill="#E4897B"/>
<path d="M198.039 154.37C197.947 154.368 197.858 154.342 197.78 154.294C197.714 154.26 197.656 154.214 197.608 154.156C197.56 154.099 197.525 154.033 197.504 153.962C197.482 153.891 197.476 153.816 197.484 153.742C197.492 153.668 197.516 153.597 197.553 153.532C197.947 152.726 198.53 152.028 199.252 151.497C199.974 150.966 200.813 150.619 201.698 150.484C201.834 150.49 201.964 150.544 202.062 150.638C202.161 150.732 202.223 150.858 202.236 150.994C202.249 151.13 202.212 151.266 202.133 151.377C202.054 151.488 201.937 151.566 201.805 151.597C201.112 151.718 200.457 151.999 199.891 152.416C199.324 152.834 198.862 153.378 198.54 154.004C198.497 154.105 198.427 154.192 198.339 154.256C198.251 154.32 198.147 154.36 198.039 154.37Z" fill="#263238"/>
<path d="M202.121 160.617C203.167 162.71 204.496 164.648 206.069 166.377C205.618 166.771 205.087 167.06 204.512 167.226C203.938 167.392 203.334 167.43 202.744 167.337L202.121 160.617Z" fill="#DE5753"/>
<path d="M201.122 159.063C201.213 160.023 201.79 160.739 202.397 160.678C203.005 160.617 203.46 159.81 203.369 158.85C203.278 157.89 202.701 157.174 202.078 157.235C201.456 157.296 201.031 158.118 201.122 159.063Z" fill="#263238"/>
<path d="M201.879 157.311L204.096 156.442C204.096 156.442 203.033 158.332 201.879 157.311Z" fill="#263238"/>
<path d="M184.156 528.509H195.986L196.775 501.051H184.946L184.156 528.509Z" fill="#E4897B"/>
<path d="M130.445 528.509H142.275L146.071 501.051H134.257L130.445 528.509Z" fill="#E4897B"/>
<path d="M143.006 527.137H129.718C129.49 527.135 129.269 527.215 129.096 527.364C128.923 527.512 128.81 527.719 128.777 527.945L127.258 538.489C127.228 538.755 127.255 539.025 127.335 539.28C127.416 539.535 127.55 539.771 127.728 539.97C127.906 540.17 128.123 540.33 128.367 540.44C128.61 540.55 128.874 540.607 129.141 540.607C133.697 540.531 136.005 540.257 141.851 540.257C145.435 540.257 150.69 540.622 155.655 540.622C160.621 540.622 160.879 535.701 158.814 535.259C149.551 533.263 148.093 530.505 144.965 527.869C144.418 527.4 143.724 527.141 143.006 527.137Z" fill="#536067"/>
<path d="M196.383 527.137H183.111C182.882 527.132 182.66 527.211 182.486 527.36C182.312 527.509 182.199 527.717 182.169 527.945L180.651 538.489C180.623 538.756 180.652 539.026 180.734 539.281C180.817 539.537 180.952 539.772 181.131 539.971C181.31 540.171 181.529 540.33 181.773 540.44C182.017 540.55 182.282 540.607 182.549 540.607C187.105 540.531 189.413 540.257 195.244 540.257C198.843 540.257 206.269 540.622 211.235 540.622C216.2 540.622 216.459 535.701 214.393 535.259C205.13 533.263 201.486 530.505 198.357 527.869C197.807 527.397 197.107 527.137 196.383 527.137Z" fill="#536067"/>
<path d="M196.764 501.051L196.369 515.206H184.539L184.949 501.051H196.764Z" fill="#CE6F64"/>
<path d="M134.244 501.051H146.074L144.115 515.206H132.285L134.244 501.051Z" fill="#CE6F64"/>
<path d="M158.569 216.417C156.324 219.936 153.723 223.214 150.809 226.199L149.457 225.3L134.484 215.32C134.484 215.32 142.654 197.035 148.804 196.105C154.681 195.16 158.964 201.255 160.953 207.777C161.712 210.139 160.452 213.339 158.569 216.417Z" fill="#23479A"/>
<path opacity="0.6" d="M158.569 216.417C156.324 219.936 153.723 223.214 150.809 226.199L149.457 225.3L134.484 215.32C134.484 215.32 142.654 197.035 148.804 196.105C154.681 195.16 158.964 201.255 160.953 207.777C161.712 210.139 160.452 213.339 158.569 216.417Z" fill="#FAFAFA"/>
<path d="M158.568 216.417C156.323 219.936 153.723 223.214 150.809 226.199L149.457 225.3C150.125 219.815 152.251 214.375 154.681 212.653C156.169 212.805 157.49 214.39 158.568 216.417Z" fill="#23479A"/>
<path opacity="0.4" d="M158.568 216.417C156.323 219.936 153.723 223.214 150.809 226.199L149.457 225.3C150.125 219.815 152.251 214.375 154.681 212.653C156.169 212.805 157.49 214.39 158.568 216.417Z" fill="#FAFAFA"/>
<path d="M209.79 225.544C209.077 230.115 208.15 235.494 206.905 241.878C205.386 250.045 203.26 259.843 200.573 271.561L152.662 268.513C154.727 248.994 155.532 236.926 148.805 196.166C155.606 195.213 162.468 194.76 169.336 194.81C176.609 194.762 183.876 195.236 191.082 196.227C200.375 197.751 210.823 200.554 210.823 200.554C210.823 200.554 213.496 201.606 209.79 225.544Z" fill="#23479A"/>
<path opacity="0.6" d="M209.79 225.544C209.077 230.115 208.15 235.494 206.905 241.878C205.386 250.045 203.26 259.843 200.573 271.561L152.662 268.513C154.727 248.994 155.532 236.926 148.805 196.166C155.606 195.213 162.468 194.76 169.336 194.81C176.609 194.762 183.876 195.236 191.082 196.227C200.375 197.751 210.823 200.554 210.823 200.554C210.823 200.554 213.496 201.606 209.79 225.544Z" fill="#FAFAFA"/>
<path d="M209.79 225.544C209.076 230.115 208.15 235.494 206.904 241.878C204.269 236.255 202.081 230.431 200.359 224.462H209.258L209.79 225.544Z" fill="#23479A"/>
<path opacity="0.4" d="M209.79 225.544C209.076 230.115 208.15 235.494 206.904 241.878C204.269 236.255 202.081 230.431 200.359 224.462H209.258L209.79 225.544Z" fill="#FAFAFA"/>
<path d="M168.898 158.819C170.705 170.445 171.236 175.413 177.69 180.853C187.394 189.05 201.228 184.266 202.913 172.32C204.432 161.577 201.213 144.359 189.353 140.794C186.744 139.99 183.974 139.87 181.306 140.445C178.638 141.02 176.161 142.27 174.11 144.077C172.06 145.884 170.505 148.187 169.592 150.768C168.68 153.348 168.441 156.12 168.898 158.819Z" fill="#E4897B"/>
<path d="M187.908 270.738C187.908 270.738 187.148 291.903 185.326 318.598C183.807 340.997 181.514 367.267 178.31 388.203L178.219 388.782C172.464 425.839 146.967 512.448 146.967 512.448H130.84C130.84 512.448 144.127 428.795 147.043 392.073C154.438 299.323 135.912 288.825 152.662 268.376L187.908 270.738Z" fill="#23479A"/>
<path opacity="0.3" d="M187.908 270.738C187.908 270.738 187.148 291.903 185.326 318.598C183.807 340.997 181.514 367.267 178.31 388.203L178.219 388.782C172.464 425.839 146.967 512.448 146.967 512.448H130.84C130.84 512.448 144.127 428.795 147.043 392.073C154.438 299.323 135.912 288.825 152.662 268.376L187.908 270.738Z" fill="black"/>
<path d="M185.326 318.599C183.807 340.998 181.514 367.267 178.31 388.203C172.859 361.004 163.899 321.28 175.926 295.255C178.796 302.645 182.137 310.995 185.326 318.599Z" fill="#23479A"/>
<path opacity="0.4" d="M185.326 318.599C183.807 340.998 181.514 367.267 178.31 388.203C172.859 361.004 163.899 321.28 175.926 295.255C178.796 302.645 182.137 310.995 185.326 318.599Z" fill="black"/>
<path d="M200.575 271.576C200.575 271.576 214.242 352.852 213.422 389.026C212.617 426.662 198.874 512.449 198.874 512.449H182.898C182.898 512.449 185.419 428.841 184.007 391.89C182.488 351.603 165.48 269.275 165.48 269.275L200.575 271.576Z" fill="#23479A"/>
<path opacity="0.3" d="M200.575 271.576C200.575 271.576 214.242 352.852 213.422 389.026C212.617 426.662 198.874 512.449 198.874 512.449H182.898C182.898 512.449 185.419 428.841 184.007 391.89C182.488 351.603 165.48 269.275 165.48 269.275L200.575 271.576Z" fill="black"/>
<path d="M180.166 513.21H201.592L203.263 506.003L179.406 506.171L180.166 513.21Z" fill="#263238"/>
<path d="M128.504 513.21H149.931L151.601 506.003L128.656 506.171L128.504 513.21Z" fill="#263238"/>
<path d="M152.115 265.603L149.686 269.778C149.488 270.098 149.868 270.464 150.415 270.494L200.664 273.77C201.089 273.77 201.469 273.618 201.514 273.344L202.228 269.062C202.228 268.772 201.909 268.498 201.438 268.468L152.844 265.298C152.708 265.292 152.572 265.316 152.446 265.369C152.32 265.421 152.207 265.501 152.115 265.603Z" fill="#263238"/>
<path d="M158.282 271.454L156.991 271.363C156.733 271.363 156.535 271.195 156.566 271.043L157.537 265.481C157.537 265.329 157.796 265.207 158.054 265.222L159.36 265.298C159.618 265.298 159.8 265.466 159.785 265.633L158.813 271.18C158.783 271.347 158.54 271.469 158.282 271.454Z" fill="#23479A"/>
<path opacity="0.3" d="M158.282 271.454L156.991 271.363C156.733 271.363 156.535 271.195 156.566 271.043L157.537 265.481C157.537 265.329 157.796 265.207 158.054 265.222L159.36 265.298C159.618 265.298 159.8 265.466 159.785 265.633L158.813 271.18C158.783 271.347 158.54 271.469 158.282 271.454Z" fill="black"/>
<path d="M189.731 273.496L188.44 273.42C188.182 273.42 187.984 273.252 188.015 273.084L188.987 267.538C188.987 267.37 189.245 267.264 189.518 267.279L190.809 267.355C191.067 267.355 191.265 267.523 191.234 267.69L190.262 273.237C190.278 273.404 190.035 273.511 189.731 273.496Z" fill="#23479A"/>
<path opacity="0.3" d="M189.731 273.496L188.44 273.42C188.182 273.42 187.984 273.252 188.015 273.084L188.987 267.538C188.987 267.37 189.245 267.264 189.518 267.279L190.809 267.355C191.067 267.355 191.265 267.523 191.234 267.69L190.262 273.237C190.278 273.404 190.035 273.511 189.731 273.496Z" fill="black"/>
<path d="M213.544 212.744C215.366 218.839 217.097 225.011 218.783 231.166L223.87 249.588L224.508 251.874L224.675 252.438L224.751 252.727V252.88C224.805 253.081 224.871 253.28 224.948 253.474C225.321 254.4 225.833 255.264 226.467 256.034C228.28 257.954 230.38 259.579 232.693 260.849C237.99 263.726 243.594 265.995 249.397 267.614L248.516 273.557C241.707 273.205 234.999 271.749 228.653 269.245C225.142 267.864 221.907 265.861 219.102 263.333C217.495 261.838 216.159 260.075 215.153 258.121C214.882 257.593 214.643 257.049 214.44 256.491L214.273 256.08L214.166 255.79L213.969 255.226L213.164 252.925C211.038 246.83 209.064 240.736 207.196 234.549C205.328 228.363 203.491 222.268 201.82 216.051L213.544 212.744Z" fill="#E4897B"/>
<path d="M210.823 200.494C216.897 202.49 223.275 222.42 223.275 222.42L201.347 231.898C201.347 231.898 192.236 209.529 196.275 204.471C200.314 199.412 203.853 198.208 210.823 200.494Z" fill="#23479A"/>
<path opacity="0.6" d="M210.823 200.494C216.897 202.49 223.275 222.42 223.275 222.42L201.347 231.898C201.347 231.898 192.236 209.529 196.275 204.471C200.314 199.412 203.853 198.208 210.823 200.494Z" fill="#FAFAFA"/>
<path d="M199.1 140.123C195.227 135.323 165.312 131.895 163.717 144.969C153.087 152.435 163.17 171.725 164.689 176.632C157.354 178.674 133.725 186.78 151.022 202.535C168.318 218.291 194.255 215.609 199.327 199.305C202.881 187.908 191.598 168.83 191.841 162.156C192.084 155.482 205.736 148.275 199.1 140.123Z" fill="#263238"/>
<path d="M166.785 179.039C166.73 179.041 166.674 179.03 166.624 179.006C166.574 178.982 166.53 178.946 166.497 178.902C163.748 175.55 154.181 157.936 157.537 149.555C158.057 148.255 158.94 147.132 160.079 146.322C161.218 145.511 162.566 145.047 163.961 144.984C164.01 144.977 164.059 144.981 164.107 144.995C164.155 145.008 164.199 145.032 164.237 145.063C164.276 145.094 164.307 145.133 164.33 145.177C164.353 145.221 164.367 145.27 164.371 145.319C164.384 145.418 164.358 145.518 164.298 145.598C164.238 145.677 164.15 145.731 164.052 145.746C162.797 145.792 161.583 146.199 160.552 146.917C159.521 147.636 158.717 148.636 158.236 149.799C155.001 157.905 164.386 175.108 167.074 178.399C167.122 178.453 167.153 178.52 167.163 178.591C167.173 178.663 167.162 178.735 167.132 178.8C167.101 178.866 167.051 178.92 166.99 178.957C166.928 178.994 166.857 179.012 166.785 179.009V179.039Z" fill="#263238"/>
<path d="M189.472 161.44C189.811 163.665 190.88 165.714 192.509 167.261C194.666 169.333 196.701 167.916 196.898 165.28C197.08 162.918 196.169 159.002 193.618 157.905C191.067 156.808 189.153 158.804 189.472 161.44Z" fill="#E4897B"/>
<path d="M241.953 265.969L250.578 263.028L249.227 273.435C249.227 273.435 245.825 274.959 241.421 271.119L237.215 268.422L240.525 266.609C240.979 266.349 241.457 266.135 241.953 265.969Z" fill="#E4897B"/>
<path d="M256.607 262.997L253.964 272.094L249.227 273.42L250.578 263.028L256.607 262.997Z" fill="#E4897B"/>
</svg>
