<svg width="107" height="35" viewBox="0 0 107 35" fill="none" xmlns="http://www.w3.org/2000/svg">
<path d="M36.8289 29H40.0689V19.7H40.9389L42.6189 29H45.8589L43.7889 18.32C44.9889 17.49 45.5889 15.82 45.5889 13.31C45.5889 9.07 43.7489 6.95 40.0689 6.95H36.8289V29ZM40.0689 16.7V10.16C40.8989 10.16 41.5039 10.425 41.8839 10.955C42.2739 11.475 42.4689 12.3 42.4689 13.43C42.4689 14.56 42.2739 15.39 41.8839 15.92C41.5039 16.44 40.8989 16.7 40.0689 16.7ZM47.6688 29H55.0788V25.67H50.9088V19.61H53.9088V16.07H50.9088V10.28H55.0788V6.95H47.6688V29ZM59.298 29H62.538L65.898 6.95H62.748L61.128 19.07L61.008 20H60.828L60.708 19.07L59.088 6.95H55.938L59.298 29ZM67.3563 29H70.5963V6.95H67.3563V29ZM73.0105 29H80.4205V25.67H76.2505V19.61H79.2505V16.07H76.2505V10.28H80.4205V6.95H73.0105V29ZM84.3398 29H86.8598L88.3598 18.56L88.5398 17.27H88.6598L88.8398 18.56L90.3398 29H92.8598L95.8298 6.95H92.8298L91.5398 18.41L91.4798 19.13H91.2398L91.1498 18.41L89.7698 6.95H87.4298L86.0498 18.41L85.9598 19.13H85.7198L85.6598 18.41L84.3698 6.95H81.3698L84.3398 29ZM101.436 29.24C102.906 29.24 104.021 28.78 104.781 27.86C105.551 26.94 105.936 25.6 105.936 23.84C105.936 22.87 105.706 21.855 105.246 20.795C104.786 19.735 104.006 18.43 102.906 16.88C101.936 15.51 101.266 14.455 100.896 13.715C100.536 12.975 100.356 12.31 100.356 11.72C100.356 10.37 100.726 9.69 101.466 9.68C102.326 9.66 102.756 10.72 102.756 12.86L105.936 12.56C105.936 10.66 105.541 9.205 104.751 8.195C103.971 7.175 102.856 6.68 101.406 6.71C100.156 6.73 99.1355 7.22 98.3455 8.18C97.5655 9.13 97.1755 10.36 97.1755 11.87C97.1755 13.54 98.0455 15.665 99.7855 18.245C100.466 19.245 101.001 20.055 101.391 20.675C101.791 21.295 102.086 21.8 102.276 22.19C102.476 22.57 102.606 22.905 102.666 23.195C102.726 23.485 102.756 23.8 102.756 24.14C102.756 25.56 102.316 26.27 101.436 26.27C100.906 26.27 100.516 25.975 100.266 25.385C100.026 24.785 99.9055 23.83 99.9055 22.52L96.7255 22.82C96.5755 27.1 98.1455 29.24 101.436 29.24Z" fill="white"/>
<rect y="3" width="31" height="29" rx="6" fill="#4985FF"/>
<path d="M9.2 29H12.44V6.95H9.2V29ZM16.7743 29H20.0143V10.28H23.0743V6.95H13.7143V10.28H16.7743V29Z" fill="white"/>
</svg>
